<svg id="Layer_1" data-name="Layer 1" xmlns="http://www.w3.org/2000/svg" xmlns:xlink="http://www.w3.org/1999/xlink" viewBox="0 0 1189.33 396.17"><defs><style>.cls-1{fill:url(#linear-gradient);}.cls-2{fill:#fff;}</style><linearGradient id="linear-gradient" y1="180" x2="1189.33" y2="180" gradientUnits="userSpaceOnUse"><stop offset="0" stop-color="#f7931e"/><stop offset="0.96" stop-color="#ed1e79"/></linearGradient></defs><title>gradient-logo</title><text x="-6645.83" y="-6869.83"/><rect class="cls-1" width="1189.33" height="360" rx="61.33"/><path class="cls-2" d="M6923.3,7059.52c-14.82,2.6-16.64,3.64-16.64,21.32v20c0,9.36.26,18.2,1.56,25.22-13.26,2.34-41.86,8.58-62.92,8.58-61.1,0-96.2-37.18-96.2-88.66,0-58.5,47.58-87.88,103-87.88,21.06,0,43.94,5.2,52.52,6,.52,11.44,2.6,31.2,4.42,45.5l-10.14,1.82c-6.24-22.1-15.86-33.28-32-38.74-6-2.08-15.6-3.12-22.1-3.12-31.46,0-55.12,27.3-55.12,72,0,45.76,16.12,81.9,58.76,81.9,5.2,0,12-.78,16.64-3.64,3.9-2.34,6-6.76,6-14.82v-22.88c0-18.2-3.64-20-25.48-22.62v-9.62h77.74Z" transform="translate(-6645.83 -6869.83)"/><path class="cls-2" d="M7006.24,7130.76H6937.6v-8.84c13.78-1.56,15.08-2.86,15.08-18.46v-56.94c0-13-1-14.3-13.26-16.9v-8.06a250.36,250.36,0,0,0,46.8-9.88v28.08c11.7-17.94,21.06-27.56,31.72-27.56,9.62,0,16.9,6.5,16.9,15.6a25.28,25.28,0,0,1-13.26,22.1,7.15,7.15,0,0,1-8.06-1.3c-4.42-3.64-7.8-7.8-12.22-7.8-3.9,0-10.4,3.38-15.08,13.26v49.4c0,15.6,1.82,16.38,20,18.46Z" transform="translate(-6645.83 -6869.83)"/><path class="cls-2" d="M7130.26,7133.88c-7,0-12.74-2.34-16.12-5.46a26.19,26.19,0,0,1-6.76-9.62c-9.88,6.5-22.62,15.08-27.56,15.08-22.36,0-35.36-17.42-35.36-33.54,0-13.78,6.24-20,20-25.48,15.34-5.72,35.88-12,41.86-17.16v-11.44c0-13.52-4.94-21.06-16.12-21.06a12.8,12.8,0,0,0-10.4,5.2c-3.12,4.16-4.16,9.36-6.24,17.16-1.82,7-6,8.84-11.18,8.84-6.76,0-15.34-6.24-15.34-13.52,0-4.68,3.12-8.06,9.1-12.22,11.7-7.8,27-15.34,41.6-18.46,10.4,0,19.24,2.34,26.78,7.54,11.18,7.8,14.3,18.72,14.3,32v45c0,12.48,4.16,15.6,8.32,15.6a19.52,19.52,0,0,0,8.06-2.08l2.86,8.84Zm-23.92-65.52c-4.68,2.6-9.36,5.2-14.56,8.06-8.06,4.16-12.74,8.84-12.74,17.68,0,14.56,10.14,19.76,15.86,19.76,3.64,0,7.28-.26,11.44-4.16Z" transform="translate(-6645.83 -6869.83)"/><path class="cls-2" d="M7300.56,7124c-6.24,1-30.16,4.16-51,10.14v-15.08c-4.68,3.12-11.18,7-15.86,10.14-6.24,3.9-10.14,4.68-13,4.68-22.1,0-53.56-19-53.56-57.72,0-35.62,31.46-64,72-64a58.49,58.49,0,0,1,10.4.78v-29.9c0-13.78-1.3-15.08-17.42-17.16v-8.58c17.16-1.82,38.22-5.2,51.22-8.84V7098c0,14,1.56,15.34,11.44,16.64l5.72.78Zm-51-87.1c-2.86-7.28-9.62-13-19.5-13-8.06,0-25.48,5.46-25.48,43.16,0,34.06,19,46.54,30.68,46.8,4.68,0,8.58-.78,14.3-4.42Z" transform="translate(-6645.83 -6869.83)"/><path class="cls-2" d="M7310.7,7130.76v-8.84c14-1.82,15.6-2.86,15.6-21.32v-50.7c0-17.42-1.3-18.46-13.52-20v-8.58a284.48,284.48,0,0,0,47.06-9.36v88.66c0,17.68,1,19.5,16.12,21.32v8.84Zm30.42-134.68c-9.88,0-18.72-8.32-18.72-18.46,0-10.66,8.84-18.46,19-18.46,10.4,0,18.72,7.8,18.72,18.46A18.65,18.65,0,0,1,7341.12,6996.08Z" transform="translate(-6645.83 -6869.83)"/><path class="cls-2" d="M7491.91,7105.28c-15.86,23.4-36.66,28.6-47.58,28.6-34.83,0-54.59-25.74-54.59-56.68,0-18.2,8.58-36.14,19.5-46.8,11.69-11.7,26.26-18.2,40.55-18.2,25.48,0,43.16,21.06,42.9,42.38,0,4.42-.26,8.84-3.38,9.62-4.94,1.3-41.6,3.12-66.81,4.16,1,27.56,16.38,41.6,35.09,41.6,10.14,0,20.28-3.64,29.64-11.7Zm-47.32-82.42c-10.4,0-19.24,12.22-20.8,32.76,10.67-.26,20.54-.52,31.46-.78,3.64-.26,5.2-.78,5.2-5.2C7460.71,7036.64,7454.73,7022.86,7444.59,7022.86Z" transform="translate(-6645.83 -6869.83)"/><path class="cls-2" d="M7582.91,7130.76v-8.84c10.92-1.56,11.7-2.6,11.7-20.54v-44.46c0-18.46-9.1-24.18-18.2-24.18-6.76,0-12.48,2.6-19.5,7.8v62.92c0,15.86,1,16.9,11.7,18.46v8.84h-60.32v-8.84c13.52-2.34,15.08-2.6,15.08-19.5v-54.08c0-15.6-2.08-16.38-13.52-18.72v-8.32c15.08-1.82,33-5.2,47.58-9.88-.26,3.64-.52,12.74-.52,18.72,5.2-3.64,10.66-7.54,16.64-11.18,7.8-4.68,12.74-6.76,20.28-6.76,21.06,0,34.32,15.34,34.32,41.86v49.14c0,16.12,1.56,16.9,14,18.72v8.84Z" transform="translate(-6645.83 -6869.83)"/><path class="cls-2" d="M7709,7131a28.4,28.4,0,0,1-10.4,2.86c-20,0-32-9.36-32-33v-72.54H7650l-1.56-3.12,7.54-9.88h10.66v-21.58c8.84-6.24,21.58-14.56,30.68-20.8l3.38,2.08c-.26,7-.78,20.8-.52,40.3h26c2.34,2.6,1.3,10.66-2.08,13h-23.92V7092c0,20.28,8.32,22.62,13.26,22.62a31.62,31.62,0,0,0,12.48-2.6l2.6,9.36Z" transform="translate(-6645.83 -6869.83)"/></svg>